<?xml version="1.0" encoding="UTF-8"?>
<!-- Generator: Adobe Illustrator 16.0.0, SVG Export Plug-In . SVG Version: 6.00 Build 0)  -->
<!DOCTYPE svg PUBLIC "-//W3C//DTD SVG 1.1//EN" "http://www.w3.org/Graphics/SVG/1.1/DTD/svg11.dtd">
<svg version="1.1" id="Layer_1" xmlns="http://www.w3.org/2000/svg" xmlns:xlink="http://www.w3.org/1999/xlink" x="0px" y="0px" width="25px" height="25px" viewBox="0 0 25 25" enable-background="new 0 0 25 25" xml:space="preserve">
<path d="M17.233,17.678h-2.534v2.533h2.534V17.678z M13.663,10.896H11.13v2.533h2.533V10.896z M17.233,14.287h-2.534v2.533h2.534  V14.287z M20.802,10.896h-2.533v2.533h2.533V10.896z M13.663,14.287H11.13v2.533h2.533V14.287z M17.233,10.896h-2.534v2.533h2.534  V10.896z M20.802,14.287h-2.533v2.533h2.533V14.287z M6.524,17.678H3.991v2.533h2.533V17.678z M6.524,14.287H3.991v2.533h2.533  V14.287z M20.149,1.963v1.113c0.438,0.387,0.715,0.949,0.715,1.58c0,1.164-0.945,2.109-2.111,2.109c-1.165,0-2.11-0.945-2.11-2.109  c0-0.631,0.277-1.193,0.715-1.58V1.963H7.496v1.113C7.934,3.463,8.21,4.025,8.21,4.656c0,1.164-0.945,2.109-2.11,2.109  c-1.166,0-2.11-0.945-2.11-2.109c0-0.631,0.276-1.193,0.715-1.58V1.963H0v22.459h24.662V1.963H20.149z M22.409,22.168H2.253V8.139  h20.156V22.168z M10.095,10.896H7.561v2.533h2.534V10.896z M10.095,17.678H7.561v2.533h2.534V17.678z M13.663,17.678H11.13v2.533  h2.533V17.678z M10.095,14.287H7.561v2.533h2.534V14.287z M6.1,5.885c0.581,0,1.051-0.471,1.051-1.049V1.051  C7.15,0.471,6.681,0,6.1,0C5.52,0,5.049,0.471,5.049,1.051v3.785C5.049,5.414,5.52,5.885,6.1,5.885z M18.753,5.885  c0.581,0,1.052-0.471,1.052-1.049V1.051c0-0.58-0.471-1.051-1.052-1.051c-0.579,0-1.05,0.471-1.05,1.051v3.785  C17.703,5.414,18.174,5.885,18.753,5.885z"/>
</svg>