<?xml version="1.0" encoding="UTF-8"?>
<!-- Generator: Adobe Illustrator 16.0.0, SVG Export Plug-In . SVG Version: 6.00 Build 0)  -->
<!DOCTYPE svg PUBLIC "-//W3C//DTD SVG 1.1 Tiny//EN" "http://www.w3.org/Graphics/SVG/1.1/DTD/svg11-tiny.dtd">
<svg version="1.1" baseProfile="tiny" id="Layer_1" xmlns="http://www.w3.org/2000/svg" xmlns:xlink="http://www.w3.org/1999/xlink" x="0px" y="0px" width="17px" height="10px" viewBox="0 0 17 10" xml:space="preserve">
<g>
	<polygon fill="#FFFFFF" points="7.717,0.082 7.195,0.082 7.195,3.417 1.318,0.082 0,0.082 0,0.179 6.156,3.669 4.99,3.669 0,0.838    0,1.313 4.145,3.669 0,3.669 0,4.258 7.717,4.258  "/>
	<polygon fill="#FFFFFF" points="10.123,3.669 16.475,0.082 15.706,0.082 9.801,3.417 9.801,0.082 9.281,0.082 9.281,4.258    16.859,4.258 16.859,3.669 12.855,3.669 16.859,1.395 16.859,0.524 11.288,3.669  "/>
	<polygon fill="#FFFFFF" points="9.281,10 9.801,10 9.801,6.865 15.366,10 16.859,10 16.859,9.904 11.024,6.613 12.191,6.613    16.859,9.246 16.859,8.863 12.855,6.613 16.859,6.613 16.859,6.023 9.281,6.023  "/>
	<polygon fill="#FFFFFF" points="0,6.023 0,6.613 4.145,6.613 0,8.965 0,9.941 5.894,6.613 7.059,6.613 1.064,10 1.65,10    7.195,6.865 7.195,10 7.717,10 7.717,6.023  "/>
	<polygon fill="#BD0034" points="16.475,0.082 10.123,3.669 11.288,3.669 16.859,0.524 16.859,0.082  "/>
	<polygon fill="#BD0034" points="11.024,6.613 16.859,9.904 16.859,9.246 12.191,6.613  "/>
	<polygon fill="#BD0034" points="6.156,3.669 0,0.179 0,0.838 4.99,3.669  "/>
	<polygon fill="#BD0034" points="5.894,6.613 0,9.941 0,10 1.064,10 7.059,6.613  "/>
	<polygon fill="#1A237B" points="15.706,0.082 9.801,0.082 9.801,3.417  "/>
	<polygon fill="#1A237B" points="7.195,0.082 1.318,0.082 7.195,3.417  "/>
	<polygon fill="#1A237B" points="16.859,3.669 16.859,1.395 12.855,3.669  "/>
	<polygon fill="#1A237B" points="16.859,8.863 16.859,6.613 12.855,6.613  "/>
	<polygon fill="#1A237B" points="1.65,10 7.195,10 7.195,6.865  "/>
	<polygon fill="#1A237B" points="9.801,10 15.366,10 9.801,6.865  "/>
	<polygon fill="#1A237B" points="0,6.613 0,8.965 4.145,6.613  "/>
	<polygon fill="#1A237B" points="0,1.313 0,3.669 4.145,3.669  "/>
	<polygon fill="#BD0034" points="9.281,0.082 7.717,0.082 7.717,4.258 0,4.258 0,6.023 7.717,6.023 7.717,10 9.281,10 9.281,6.023    16.859,6.023 16.859,4.258 9.281,4.258  "/>
</g>
</svg>