<?xml version="1.0" encoding="utf-8"?>
<!-- Generator: Adobe Illustrator 16.0.0, SVG Export Plug-In . SVG Version: 6.00 Build 0)  -->
<!DOCTYPE svg PUBLIC "-//W3C//DTD SVG 1.1 Tiny//EN" "http://www.w3.org/Graphics/SVG/1.1/DTD/svg11-tiny.dtd">
<svg version="1.1" baseProfile="tiny" id="Layer_1" xmlns="http://www.w3.org/2000/svg" xmlns:xlink="http://www.w3.org/1999/xlink"
	 x="0px" y="0px" width="25px" height="27px" viewBox="0 0 25 27" xml:space="preserve">
<g>
	<g>
		<circle fill="#ffffff" cx="16.848" cy="24.246" r="1.836"/>
		<circle fill="#ffffff" cx="10.907" cy="24.246" r="1.836"/>
		<path fill="#ffffff" d="M22.164,11.111c-0.518-0.186-1.092,0.086-1.277,0.607L18.295,19H8.847L5.93,11.632
			C5.778,11.25,5.41,11,5,11H1c-0.553,0-1,0.447-1,1s0.447,1,1,1h3.32l2.917,7.368C7.388,20.75,7.757,21,8.167,21H19
			c0.423,0,0.8-0.266,0.942-0.664l2.829-7.947C22.956,11.869,22.685,11.297,22.164,11.111z"/>
	</g>
</g>
</svg>
