<?xml version="1.0" encoding="UTF-8"?>
<!-- Generator: Adobe Illustrator 16.0.4, SVG Export Plug-In . SVG Version: 6.00 Build 0)  -->
<!DOCTYPE svg PUBLIC "-//W3C//DTD SVG 1.1//EN" "http://www.w3.org/Graphics/SVG/1.1/DTD/svg11.dtd">
<svg version="1.1" id="Layer_1" xmlns="http://www.w3.org/2000/svg" xmlns:xlink="http://www.w3.org/1999/xlink" x="0px" y="0px" width="40px" height="26px" viewBox="-4 3 40 26" enable-background="new -4 3 40 26" xml:space="preserve">
<path opacity="0.8" fill="#FFFFFF" d="M35.134,6.739c-0.596-1.697-1.785-2.71-3.575-3.16C29.244,3,19.008,3,16,3  C12.994,3,2.755,3,0.441,3.579c-1.789,0.45-2.979,1.465-3.574,3.16C-4,9.205-4,15.124-4,16c0,0.876,0,6.795,0.867,9.264  c0.595,1.697,1.785,2.709,3.574,3.158C2.753,29,12.994,29,16,29c3.007,0,13.244,0,15.558-0.578c1.79-0.449,2.979-1.459,3.575-3.158  C36,22.795,36,16.876,36,16C36,15.124,36.004,9.205,35.134,6.739z M11.767,21.189c0-3.469,0-6.905,0-10.38  c3.449,1.736,6.874,3.46,10.345,5.207C18.641,17.751,15.22,19.463,11.767,21.189z"/>
<path opacity="0.8" d="M11.767,21.189c0-3.469,0-6.905,0-10.38c3.449,1.736,6.874,3.46,10.345,5.207  C18.641,17.751,15.22,19.463,11.767,21.189z"/>
</svg>